<?xml version="1.0" standalone="no"?><!DOCTYPE svg PUBLIC "-//W3C//DTD SVG 1.1//EN" "http://www.w3.org/Graphics/SVG/1.1/DTD/svg11.dtd"><svg width="100%" height="100%" viewBox="0 0 25 30" version="1.1" xmlns="http://www.w3.org/2000/svg" xmlns:xlink="http://www.w3.org/1999/xlink" xml:space="preserve" style="fill-rule:evenodd;clip-rule:evenodd;stroke-linejoin:round;stroke-miterlimit:1.41421;"><g id="Group"><path id="Shape" d="M20.929,7.74c-3.699,-1.701 -8.547,-1.944 -12.621,0.47c-2.717,1.661 -4.908,4.612 -5.134,7.782c-0.076,2.112 0.842,4.425 0.54,6.538c-0.076,1.132 -0.336,2.262 -0.865,3.242c-0.678,1.133 -1.491,2.114 -2.849,2.19c0.302,-0.377 2.398,-1.411 1.574,-6.16c-0.327,-1.883 -2.915,-6.553 -0.414,-12.407c2.284,-5.345 12.166,-11.679 22.008,-6.426c0,0 -1.484,3.188 -2.239,4.771Z" style="fill:#5c33f9;"/><path id="Shape1" d="M15.919,12.173c2.564,0.453 4.485,2.001 5.421,4.3c0.979,2.405 1.683,4.347 3.365,6.402c0.048,0.06 -2.627,-0.393 -2.617,-0.467c0.654,-4.767 -3.852,-4.964 -5.095,-3.179c0.936,1.028 2.541,1.557 3.786,1.355c-0.264,4.734 1.057,9.03 0.981,9.021c-1.073,-0.148 -5.992,-3.043 -7.431,-4.3c-2.113,0.377 -3.769,1.157 -6.216,1.496c-0.075,0.01 0.449,-1.806 0.374,-2.711c0,-2.49 -1.908,-4.824 -0.558,-7.883c0.81,-1.833 2.031,-3.186 3.918,-3.865c1.279,-0.462 2.713,-0.47 4.072,-0.169Z" style="fill:#5c33f9;"/><g id="Shape2"><path d="M13.617,10.905c0.143,0.002 0.36,0.035 0.364,0.021c0.041,-0.165 0.175,-1.345 1.181,-2.206c1.119,-0.958 2.59,-0.863 2.575,-0.872c-1.466,-0.448 -2.976,-0.479 -4.019,-0.388l-0.101,3.445Z" style="fill:#5c33f9;"/><path d="M4.295,15.201c-0.223,1.419 -0.238,2.735 -0.119,3.435c0.003,0.01 0.211,-1.201 0.9,-1.883c0.6,-0.595 1.364,-0.711 1.635,-0.701c0,-0.004 0.136,-0.464 0.117,-0.465l-2.533,-0.386Z" style="fill:#5c33f9;"/><path d="M7.132,14.938c0.074,-0.188 0.164,-0.355 0.273,-0.57l-2.604,-1.01c-0.162,0.324 -0.284,0.811 -0.344,1.074l2.675,0.506Z" style="fill:#5c33f9;"/><path d="M7.761,13.945c0.007,-0.009 0.418,-0.532 0.425,-0.527l-2.386,-1.793c-0.249,0.313 -0.451,0.658 -0.613,1.023l2.574,1.297Z" style="fill:#5c33f9;"/><path d="M8.649,12.969c0.013,-0.014 0.53,-0.482 0.53,-0.482l-2.067,-2.351c-0.466,0.404 -0.608,0.587 -0.892,0.931l2.429,1.902Z" style="fill:#5c33f9;"/><path d="M9.722,12.153c0.004,0.028 0.594,-0.33 0.607,-0.356l-1.535,-2.796c-0.587,0.283 -0.963,0.588 -1.135,0.709l2.063,2.443Z" style="fill:#5c33f9;"/><path d="M10.861,11.534c0.733,-0.249 0.73,-0.257 0.73,-0.243l-0.872,-3.142c-0.486,0.142 -1.143,0.423 -1.297,0.527l1.439,2.858Z" style="fill:#5c33f9;"/><path d="M12.158,11.108c0.026,0.013 0.66,-0.142 0.669,-0.143l0.08,-3.404c-0.026,0.026 -0.79,0.143 -1.438,0.324l0.689,3.223Z" style="fill:#5c33f9;"/></g></g></svg>