<?xml version="1.0" encoding="UTF-8" standalone="no"?>
<svg width="25px" height="30px" viewBox="0 0 25 30" version="1.1" xmlns="http://www.w3.org/2000/svg" xmlns:xlink="http://www.w3.org/1999/xlink" xmlns:sketch="http://www.bohemiancoding.com/sketch/ns">
    <!-- Generator: Sketch 3.2 (9964) - http://www.bohemiancoding.com/sketch -->
    <title>MSUSpartans_Logo 2</title>
    <desc>Created with Sketch.</desc>
    <defs></defs>
    <g id="Page-1" stroke="none" stroke-width="1" fill="none" fill-rule="evenodd" sketch:type="MSPage">
        <g id="MSUSpartans_Logo" sketch:type="MSLayerGroup" fill="#4CE684">
            <g id="Group" sketch:type="MSShapeGroup">
                <path d="M20.929,7.74 C17.23,6.039 12.382,5.796 8.308,8.21 C5.591,9.871 3.4,12.822 3.174,15.992 C3.098,18.104 4.016,20.417 3.714,22.53 C3.638,23.662 3.378,24.792 2.849,25.772 C2.171,26.905 1.358,27.886 0,27.962 C0.302,27.585 2.398,26.551 1.574,21.802 C1.247,19.919 -1.341,15.249 1.16,9.395 C3.444,4.05 13.326,-2.284 23.168,2.969 C23.168,2.969 21.684,6.157 20.929,7.74 Z" id="Shape"></path>
                <path d="M15.919,12.173 C18.483,12.626 20.404,14.174 21.34,16.473 C22.319,18.878 23.023,20.82 24.705,22.875 C24.753,22.935 22.078,22.482 22.088,22.408 C22.742,17.641 18.236,17.444 16.993,19.229 C17.929,20.257 19.534,20.786 20.779,20.584 C20.515,25.318 21.836,29.614 21.76,29.605 C20.687,29.457 15.768,26.562 14.329,25.305 C12.216,25.682 10.56,26.462 8.113,26.801 C8.038,26.811 8.562,24.995 8.487,24.09 C8.487,21.6 6.579,19.266 7.929,16.207 C8.739,14.374 9.96,13.021 11.847,12.342 C13.126,11.88 14.56,11.872 15.919,12.173 Z" id="Shape"></path>
                <g transform="translate(4.000000, 7.000000)" id="Shape">
                    <path d="M9.617,3.905 C9.76,3.907 9.977,3.94 9.981,3.926 C10.022,3.761 10.156,2.581 11.162,1.72 C12.281,0.762 13.752,0.857 13.737,0.848 C12.271,0.4 10.761,0.369 9.718,0.46 L9.617,3.905 L9.617,3.905 Z"></path>
                    <path d="M0.295,8.201 C0.072,9.62 0.057,10.936 0.176,11.636 C0.179,11.646 0.387,10.435 1.076,9.753 C1.676,9.158 2.44,9.042 2.711,9.052 C2.711,9.048 2.847,8.588 2.828,8.587 L0.295,8.201 L0.295,8.201 Z"></path>
                    <path d="M3.132,7.938 C3.206,7.75 3.296,7.583 3.405,7.368 L0.801,6.358 C0.639,6.682 0.517,7.169 0.457,7.432 L3.132,7.938 L3.132,7.938 Z"></path>
                    <path d="M3.761,6.945 C3.768,6.936 4.179,6.413 4.186,6.418 L1.8,4.625 C1.551,4.938 1.349,5.283 1.187,5.648 L3.761,6.945 L3.761,6.945 Z"></path>
                    <path d="M4.649,5.969 C4.662,5.955 5.179,5.487 5.179,5.487 L3.112,3.136 C2.646,3.54 2.504,3.723 2.22,4.067 L4.649,5.969 L4.649,5.969 Z"></path>
                    <path d="M5.722,5.153 C5.726,5.181 6.316,4.823 6.329,4.797 L4.794,2.001 C4.207,2.284 3.831,2.589 3.659,2.71 L5.722,5.153 L5.722,5.153 Z"></path>
                    <path d="M6.861,4.534 C7.594,4.285 7.591,4.277 7.591,4.291 L6.719,1.149 C6.233,1.291 5.576,1.572 5.422,1.676 L6.861,4.534 L6.861,4.534 Z"></path>
                    <path d="M8.158,4.108 C8.184,4.121 8.818,3.966 8.827,3.965 L8.907,0.561 C8.881,0.587 8.117,0.704 7.469,0.885 L8.158,4.108 L8.158,4.108 Z"></path>
                </g>
            </g>
        </g>
    </g>
</svg>