<?xml version="1.0" standalone="no"?>
<!DOCTYPE svg PUBLIC "-//W3C//DTD SVG 1.1//EN" "http://www.w3.org/Graphics/SVG/1.1/DTD/svg11.dtd">
<svg width="100%" height="100%" viewBox="0 0 2084 521" version="1.1" xmlns="http://www.w3.org/2000/svg" xmlns:xlink="http://www.w3.org/1999/xlink" xml:space="preserve" style="fill-rule:evenodd;clip-rule:evenodd;stroke-linejoin:round;stroke-miterlimit:1.41421;">
    <g transform="matrix(4.16667,0,0,4.16667,0,0)">
        <path d="M476.193,33.488L498.796,10.886C499.616,10.064 501.538,8.14 497.648,4.135C495.98,2.416 494.459,1.54 493.129,1.529L493.105,1.529C491.96,1.529 491.188,2.144 490.584,2.746L467.928,25.403L445.309,2.644C443.481,0.815 441.34,1.243 438.58,4C435.773,6.821 435.314,8.988 437.135,10.819L459.757,33.576L437.601,55.733L437.443,55.888C436.904,56.41 436.09,57.199 436.079,58.485C436.069,59.811 436.952,61.373 438.705,63.126C440.185,64.608 441.587,65.358 442.875,65.358L442.876,65.358C444.327,65.357 445.254,64.427 445.778,63.904L468.018,41.663L490.76,64.407C491.047,64.694 491.848,65.353 493.134,65.353L493.18,65.353C494.618,65.336 496.132,64.502 497.681,62.875C500.233,60.195 500.659,57.962 498.946,56.239L476.193,33.488ZM394.537,1.019C377.787,2.293 364.666,17.025 364.666,34.558L364.666,89.998C364.666,93.21 367.108,93.867 370.773,93.867C374.438,93.867 376.88,93.21 376.88,89.998L376.88,34.427C376.88,23.504 384.827,14.124 394.971,13.073C400.795,12.48 406.393,14.302 410.747,18.229C415.021,22.082 417.473,27.62 417.475,33.427C417.475,35.088 416.661,40.5 412.947,45.523C410.138,49.319 404.817,53.841 395.382,53.841C395.331,53.842 395.262,53.841 395.203,53.841C392.782,53.841 390.715,53.955 390.317,59.69C390.05,63.55 390.072,65.275 393.406,65.74C399.353,66.565 405.417,65.402 411.426,62.279C421.687,56.941 428.561,46.826 429.369,35.878C430.071,26.371 426.642,17.096 419.96,10.43C413.253,3.74 403.991,0.315 394.537,1.019ZM47.748,37.762C35.746,36.039 24.042,39.232 14.51,46.57L14.51,13.55L70.463,13.55C72.407,13.55 73.801,13.201 73.801,7.46C73.801,1.858 71.544,1.635 70.054,1.635L8.096,1.635C4.498,1.635 2.595,4.545 2.595,7.772L2.595,61.963C2.595,64.804 4.396,65.767 7.749,66.43C10.683,67.011 12.387,66.672 13.671,65.25L13.806,65.042C19.709,56.533 32.552,48.292 44.76,49.786C59.332,51.568 71.065,63.193 72.669,77.424C73.693,86.505 70.922,95.234 64.872,102.004C58.898,108.688 50.347,112.522 41.415,112.522C28.182,112.522 16.617,104.016 11.801,91.671C11.088,89.844 9.884,88.491 4.67,90.386C-0.118,92.127 -0.396,94.143 0.263,95.969C6.533,113.233 23.07,124.834 41.413,124.834C53.836,124.834 65.725,119.508 74.032,110.22C82.448,100.812 86.271,88.684 84.863,76.07C82.657,56.324 67.372,40.571 47.748,37.762ZM289.661,111.715C262.634,111.715 240.645,89.727 240.645,62.7C240.645,35.673 262.634,13.684 289.661,13.684C316.686,13.684 338.673,35.673 338.673,62.7C338.673,89.727 316.686,111.715 289.661,111.715ZM289.661,0.399C255.306,0.399 227.357,28.348 227.357,62.7C227.357,97.053 255.306,125 289.661,125C324.014,125 351.961,97.053 351.961,62.7C351.961,28.348 324.014,0.399 289.661,0.399ZM154.83,111.715C127.803,111.715 105.815,89.727 105.815,62.7C105.815,35.673 127.803,13.684 154.83,13.684C181.856,13.684 203.843,35.673 203.843,62.7C203.843,89.727 181.856,111.715 154.83,111.715ZM154.83,0.399C120.476,0.399 92.526,28.348 92.526,62.7C92.526,97.053 120.476,125 154.83,125C189.183,125 217.131,97.053 217.131,62.7C217.131,28.348 189.183,0.399 154.83,0.399Z" style="fill:rgb(3,4,4);fill-rule:nonzero;"/>
    </g>
</svg>
