<?xml version="1.0" standalone="no"?>
<!DOCTYPE svg PUBLIC "-//W3C//DTD SVG 1.1//EN" "http://www.w3.org/Graphics/SVG/1.1/DTD/svg11.dtd">
<svg width="100%" height="100%" viewBox="0 0 239 59" version="1.1" xmlns="http://www.w3.org/2000/svg" xmlns:xlink="http://www.w3.org/1999/xlink" xml:space="preserve" style="fill-rule:evenodd;clip-rule:evenodd;stroke-linejoin:round;stroke-miterlimit:1.41421;">
    <g transform="matrix(0.569804,0,0,0.569804,-59.6397,-1909.98)">
        <g id="Fill-50" transform="matrix(3.15986,0,0,3.15986,-6.37765,2305.45)">
            <path d="M51.608,331.455C42.614,331.455 35.32,338.748 35.32,347.745C35.32,354.942 39.987,361.047 46.46,363.201C47.275,363.351 47.572,362.848 47.572,362.416C47.572,362.029 47.558,361.005 47.55,359.646C43.019,360.63 42.063,357.462 42.063,357.462C41.322,355.58 40.254,355.079 40.254,355.079C38.775,354.069 40.366,354.089 40.366,354.089C42.001,354.204 42.861,355.768 42.861,355.768C44.314,358.257 46.674,357.538 47.602,357.121C47.75,356.069 48.171,355.351 48.636,354.944C45.019,354.533 41.216,353.135 41.216,346.893C41.216,345.115 41.851,343.66 42.893,342.522C42.725,342.11 42.166,340.453 43.053,338.211C43.053,338.211 44.42,337.773 47.532,339.881C48.831,339.519 50.225,339.339 51.61,339.332C52.994,339.339 54.387,339.519 55.688,339.881C58.798,337.773 60.163,338.211 60.163,338.211C61.052,340.453 60.493,342.11 60.326,342.522C61.37,343.66 62,345.115 62,346.893C62,353.151 58.191,354.528 54.563,354.931C55.147,355.434 55.668,356.428 55.668,357.947C55.668,360.125 55.648,361.882 55.648,362.416C55.648,362.852 55.942,363.359 56.768,363.2C63.236,361.041 67.899,354.94 67.899,347.745C67.899,338.748 60.605,331.455 51.608,331.455" style="fill:rgb(13,13,13);"/>
        </g>
        <g transform="matrix(1,0,0,1,-9,0.417525)">
            <text x="243px" y="3430.43px" style="font-family:'AvenirNext-Bold';font-size:72px;fill:black;">GitHub</text>
        </g>
    </g>
</svg>
